<svg xmlns="http://www.w3.org/2000/svg" viewBox="0 10.079999923706055 139.42999267578125 41.190006256103516" data-asc="1.0087890625" width="139.42999267578125" height="41.190006256103516"><defs/><g fill="#000000"><g transform="translate(0, 0)"><path d="M22.95 10.91L22.95 50.44L13.94 50.44L8.59 32.47L8.59 50.44L0 50.44L0 10.91L8.59 10.91L14.36 28.71L14.36 10.91L22.95 10.91ZM50.56 34.06Q50.56 40.01 50.28 42.49Q50 44.97 48.52 47.02Q47.05 49.07 44.53 50.17Q42.02 51.27 38.67 51.27Q35.50 51.27 32.97 50.23Q30.44 49.19 28.91 47.12Q27.37 45.04 27.08 42.60Q26.78 40.16 26.78 34.06L26.78 27.29Q26.78 21.34 27.06 18.86Q27.34 16.38 28.82 14.33Q30.30 12.28 32.81 11.18Q35.33 10.08 38.67 10.08Q41.85 10.08 44.37 11.12Q46.90 12.16 48.44 14.23Q49.98 16.31 50.27 18.75Q50.56 21.19 50.56 27.29L50.56 34.06M40.28 21.07Q40.28 18.31 39.98 17.54Q39.67 16.77 38.72 16.77Q37.92 16.77 37.49 17.40Q37.06 18.02 37.06 21.07L37.06 39.53Q37.06 42.97 37.34 43.77Q37.62 44.58 38.65 44.58Q39.70 44.58 39.99 43.65Q40.28 42.72 40.28 39.23L40.28 21.07ZM86.11 10.91L86.11 50.44L77.12 50.44L77.12 23.75L73.54 50.44L67.16 50.44L63.38 24.37L63.38 50.44L54.39 50.44L54.39 10.91L67.70 10.91Q68.29 14.48 68.95 19.31L70.36 29.37L72.71 10.91L86.11 10.91ZM107.98 10.91L113.87 50.44L103.34 50.44L102.83 43.33L99.15 43.33L98.54 50.44L87.89 50.44L93.12 10.91L107.98 10.91M102.54 36.33Q101.76 29.61 100.98 19.75Q99.41 31.08 99.02 36.33L102.54 36.33ZM115.63 10.91L123.32 10.91Q130.76 10.91 133.39 11.60Q136.01 12.28 137.38 13.84Q138.75 15.41 139.09 17.32Q139.43 19.24 139.43 24.85L139.43 38.70Q139.43 44.02 138.93 45.81Q138.43 47.61 137.18 48.62Q135.94 49.63 134.11 50.04Q132.28 50.44 128.59 50.44L115.63 50.44L115.63 10.91M125.90 17.68L125.90 43.68Q128.13 43.68 128.64 42.79Q129.15 41.89 129.15 37.94L129.15 22.58Q129.15 19.90 128.98 19.14Q128.81 18.38 128.20 18.03Q127.59 17.68 125.90 17.68Z"/></g></g></svg>